<svg xmlns="http://www.w3.org/2000/svg" version="1.1" xmlns:xlink="http://www.w3.org/1999/xlink" xmlns:svgjs="http://svgjs.dev/svgjs" width="1000" height="1125" viewBox="0 0 1000 1125"><g transform="matrix(1,0,0,1,1.7053025658242404e-13,0)"><svg viewBox="0 0 320 360" data-background-color="#dedede" preserveAspectRatio="xMidYMid meet" height="1125" width="1000" xmlns="http://www.w3.org/2000/svg" xmlns:xlink="http://www.w3.org/1999/xlink"><g id="tight-bounds" transform="matrix(1,0,0,1,0,0)"><svg viewBox="0 0 320 360" height="360" width="320"><g><svg></svg></g><g><svg viewBox="0 0 320 360" height="360" width="320"><g><path xmlns="http://www.w3.org/2000/svg" d="M20.961 227.22l3.726 4.658-1.863-6.056c-0.466-2.795-3.726 0.466-1.863 1.398M25.153 224.425c1.397 2.329 2.795 4.658 2.795 6.987 0 3.261 2.795 4.658 5.123 5.589-3.261-3.726-5.124-13.974-7.918-12.576M204.017 26.929c7.918 0 15.371-0.932 23.756 0.931 20.495 5.124 37.729 15.371 49.374 29.811l32.606 52.169c1.397 13.042 4.192 27.482 3.726 43.319 3.261 0 2.795-4.658 6.521-5.59-3.726 9.316-5.59 20.961-6.521 34.469-2.329-7.453 0-18.632 0.466-24.687-3.261 5.124-5.124 1.397-5.124-0.932 0.466-3.726-1.397-3.261-2.795-4.658-5.124-4.658-8.384-9.782-12.11-17.7 2.329-6.055 2.795-14.905-4.658-19.563-2.329-1.397-5.124-3.726-6.521-7.453-1.863-5.124-5.124-11.179-4.193-19.097 0.466-2.329-6.987 5.124-11.179 1.863-18.166-12.576-36.332-27.016-58.224-39.127-11.645 0-20.029-4.192-24.221-9.316-3.726-4.658-0.932-10.713 4.658-11.179 3.261 0 6.987-0.932 9.782 0.932 0.466-1.863 2.329-4.192 4.657-4.192M157.904 16.215l0.932 0.466c4.658 0.932 6.987 7.453 12.11 5.124 0 3.261 0.466 6.521-0.466 8.85-1.397 3.726-5.59 3.726-8.85 3.726-31.208-1.863-49.374 11.179-68.471 22.358-5.124 3.261-10.713 5.59-14.906 9.782-20.029 18.632-41.921 35.866-47.045 70.335l-4.192 38.195c-0.466 4.192-5.124 8.384-4.192 13.508l3.26 22.824c-3.261-3.261-5.124 0.932-4.192 2.795 0.466 1.397 2.329 6.055 5.124 1.863 3.726 6.987 7.453 20.495 12.576 26.55 15.837 18.632 36.332 35.4 53.101 52.169 4.192-0.932 7.453-0.932 8.384-3.727 1.397 2.795-1.397 5.59-3.726 6.056 7.453 4.658 15.837 8.85 27.016 9.781 14.44 0.932 27.948 3.261 40.524 6.522 6.521-1.863 13.042-2.795 20.029-3.261 2.329 0 3.726-3.726 6.521-4.658l0.466-4.658c2.795 4.192 2.329-1.397 0.466-4.192 3.261 2.795 4.192 5.124 5.589 6.987 0-1.397 3.726-6.521 3.727-0.466l0.931-6.055c1.397-0.932 1.863 5.124 3.261 0.931 1.397-4.192 4.192-0.932 6.987-2.329-0.932 1.863-0.466 5.59 2.794 3.261l3.727-3.261c2.329 5.59 6.055 3.261 7.918 2.329 20.495-13.042 40.99-28.413 60.553-43.784l-0.466 6.055 2.329-7.453c2.329 2.329 4.192 0.466 5.124-0.931 2.795-4.658 6.521-9.316 12.577-13.508-7.453 20.029-16.303 35.866-27.482 48.908l-4.658 5.59c0 3.261-0.932 7.453-4.658 7.918-1.863 0.466-5.59-0.932-8.384 1.863-1.397 1.863 3.261 5.59-0.466 2.795-3.261-2.329-6.521 0-10.248 0.932-2.795 0.932 1.863 3.726 2.795 5.589 0.932 1.863 1.863 3.726 1.398 6.056l-5.124-5.59c-6.055 3.261-9.782 9.316-14.906 13.974-2.329 1.863-1.397 5.124-1.397 7.918-3.261 0-6.987-0.932-8.85 0.932-1.397 1.863-0.932 4.658-0.932 7.453-4.658-0.466-5.124-7.453-9.315-6.056-4.192 0.932-8.85 1.397-12.577 3.727 2.795 5.59-4.658 2.329-3.726 3.26-6.987-4.192-13.042-7.453-20.495-4.658-15.837-5.124-35.4-2.795-49.84-0.931 0-2.329 0.466-4.658-0.466-5.124-0.932 2.329-3.726 1.397-3.26 1.397-8.85-6.055-17.7-9.782-27.016-14.905-8.384 0.932-16.303-3.261-18.632-5.59-6.521-6.055-13.974-2.795-20.029-4.192-13.042-3.261-17.7-16.769-19.098-26.084-0.932-4.658-4.658-6.521-6.055-6.056-6.055-19.563-15.371-37.263-22.824-55.429-1.863-4.658-1.397-9.316-1.397-14.44 2.329 0.932 4.658 0.466 4.192-2.794-2.329-15.371-7.918-27.016-13.974-38.195 3.261-15.837 3.726-34.469 11.179-48.443 6.521-12.576 18.632-19.098 27.016-29.811 2.795-3.726 2.795-8.85 5.59-12.11 9.316-9.316 18.632-19.098 28.879-27.482 4.658-3.726 10.247 0 17.234-1.397 2.329-8.384 11.645-15.837 20.495-13.508 3.726 0.932 11.179-8.85 13.508-9.782 3.726-1.397 1.863 3.726 1.863 6.987 8.85-6.987 20.961-10.713 32.14-14.906" fill="#374151" fill-rule="nonzero" stroke="none" stroke-width="1" stroke-linecap="butt" stroke-linejoin="miter" stroke-miterlimit="10" stroke-dasharray="" stroke-dashoffset="0" font-family="none" font-weight="none" font-size="none" text-anchor="none" style="mix-blend-mode: normal" data-fill-palette-color="tertiary"></path></g><g transform="matrix(1,0,0,1,64,120.03229269470907)"><svg viewBox="0 0 192 119.93541461058184" height="119.93541461058184" width="192"><g><svg viewBox="0 0 192 119.93541461058184" height="119.93541461058184" width="192"><g><svg viewBox="0 0 192 119.93541461058184" height="119.93541461058184" width="192"><g transform="matrix(1,0,0,1,0,72.49118186838633)"><svg viewBox="0 0 192 47.44423274219551" height="47.44423274219551" width="192"><g id="textblocktransform"><svg viewBox="0 0 192 47.44423274219551" height="47.44423274219551" width="192" id="textblock"><g><svg viewBox="0 0 192 47.44423274219551" height="47.44423274219551" width="192"><g transform="matrix(1,0,0,1,0,0)"><svg width="192" viewBox="2.390000104904175 -40.599998474121094 166.57000732421875 41.15999984741211" height="47.44423274219551" data-palette-color="#374151"><path d="M24.46-13.94L24.46-16.58 38.89-16.58 38.89-13.94 37.52-13.94Q36.79-13.94 36.41-13.71 36.04-13.48 36.04-12.84L36.04-12.84 36.04-2.29Q34.28-2.29 32.13-1.56L32.13-1.56 29-0.54Q25.51 0.56 21.47 0.56 17.43 0.56 13.83-0.89 10.23-2.34 7.69-4.86 5.15-7.37 3.77-10.77 2.39-14.16 2.39-17.59 2.39-21.02 3.11-23.63 3.83-26.25 5.13-28.39 6.42-30.54 8.22-32.21 10.01-33.89 12.16-35.03L12.16-35.03Q16.58-37.38 21.78-37.38L21.78-37.38Q29.81-37.38 34.52-34.89L34.52-34.89 33.96-28.86 32.35-28.86Q32.35-31.1 29.57-32.69L29.57-32.69Q26.49-34.45 21.66-34.45L21.66-34.45Q15.38-34.45 11.23-29.93L11.23-29.93Q7.18-25.54 7.18-19.26L7.18-19.26Q7.18-12.38 10.99-7.54L10.99-7.54Q15.09-2.37 22.05-2.37L22.05-2.37Q29.71-2.37 31.08-5.66L31.08-5.66Q31.49-6.69 31.49-7.89L31.49-7.89 31.49-12.84Q31.49-13.5 31.12-13.72 30.74-13.94 30.1-13.94L30.1-13.94 24.46-13.94ZM66.11-3.56L66.55-1.27Q62.99 0.56 61.4 0.56L61.4 0.56Q57.83 0.56 57.83-2.47L57.83-2.47 57.83-3.22Q57.49-2.71 55.97-1.73 54.44-0.76 53.59-0.37L53.59-0.37Q51.56 0.56 50.51 0.56 49.46 0.56 48.78 0.48 48.09 0.39 47.36 0.15 46.63-0.1 45.92-0.54 45.21-0.98 44.65-1.68L44.65-1.68Q43.41-3.25 43.41-5.76L43.41-5.76Q43.41-9.23 45.87-10.6L45.87-10.6Q47.43-11.5 49.18-11.72 50.93-11.94 52.37-12.06L52.37-12.06Q55.1-12.3 57.83-12.35L57.83-12.35 57.83-17.48Q57.83-19.6 57.3-20.31L57.3-20.31Q56.39-21.56 54.49-21.56L54.49-21.56Q50.24-21.56 46.14-18.8L46.14-18.8 44.72-20.92Q50.44-24.73 54.95-24.73L54.95-24.73Q58.88-24.73 60.52-22.56L60.52-22.56Q61.79-20.87 61.79-17.77L61.79-17.77 61.79-4.93Q61.79-3.13 62.47-2.88L62.47-2.88Q62.72-2.81 63.11-2.81L63.11-2.81Q64.08-2.81 66.11-3.56L66.11-3.56ZM57.83-5.47L57.83-10.3Q50.9-10.03 48.95-8.91L48.95-8.91Q47.46-8.06 47.46-6.15L47.46-6.15Q47.46-3.39 49.58-2.76L49.58-2.76Q50.17-2.59 51.01-2.59 51.85-2.59 52.98-2.93 54.1-3.27 55.05-3.76L55.05-3.76Q56.86-4.64 57.83-5.47L57.83-5.47ZM75.36-40.6L75.36-2.59 78.46-2.03 78.46 0 68.21 0 68.21-2.03 71.38-2.59 71.38-36.21 68.21-36.82 68.21-38.79 75.36-40.6ZM75.56-12.99L86.47-21.61 84.3-22.12 84.3-24.15 94.09-24.15 94.09-22.12 90.28-21.56 79.95-13.62 90.2-3.22 91.79-2.42 94.43-2.03 94.43 0 87.57 0 75.56-12.99ZM122.84-3.32L123.36-1.03Q120.7 0.56 119.11 0.56L119.11 0.56Q117.6 0.56 116.86-0.05L116.86-0.05Q115.54-1.07 115.54-2.47L115.54-2.47 115.54-2.81Q113.44-1.03 111.2-0.23 108.95 0.56 107.27 0.56L107.27 0.56Q103.85 0.56 101.91-1.31 99.97-3.17 99.97-6.96L99.97-6.96 99.97-20.36 97.06-20.85 97.06-23 103.92-24.73 103.92-6.96Q103.92-4.76 105.44-3.56L105.44-3.56Q106.68-2.59 108.37-2.59L108.37-2.59Q111.13-2.59 113.54-4.05L113.54-4.05Q114.64-4.69 115.54-5.54L115.54-5.54 115.54-20.36 111.86-20.85 111.86-22.88 119.5-24.73 119.5-4.13Q119.5-2.81 120.82-2.81L120.82-2.81Q121.75-2.81 122.84-3.32L122.84-3.32ZM129.12-2.59L129.12-20.36 125.99-20.92 125.99-22.95 133.07-24.73 133.07-18.51Q138.69-24.73 141.52-24.73L141.52-24.73Q143.84-24.73 145.79-22.88L145.79-22.88 144.52-18.92 143.37-18.92Q143.37-20.12 141.54-20.7L141.54-20.7Q141.03-20.85 140.52-20.85L140.52-20.85Q137.93-20.85 133.07-15.65L133.07-15.65 133.07-2.59 137.91-2.03 137.91 0 125.99 0 125.99-2.03 129.12-2.59ZM167.32-5.59L167.32-5.59 168.71-4Q164.83-0.51 161.19 0.37L161.19 0.37Q160.39 0.56 159.61 0.56L159.61 0.56Q154.24 0.56 150.87-2.83L150.87-2.83Q147.52-6.15 147.52-11.5L147.52-11.5Q147.52-16.82 150.67-20.61L150.67-20.61Q154.14-24.73 159.68-24.73L159.68-24.73Q163.51-24.73 166.15-21.97L166.15-21.97Q168.96-19.09 168.96-14.48L168.96-14.48 167.81-13.45 151.89-12.3Q151.94-7.86 154.77-5.2L154.77-5.2Q157.31-2.86 160.68-2.86 164.05-2.86 167.32-5.59ZM152.06-14.6L152.06-14.6 164.61-15.75Q164.44-19.8 161.49-21.31L161.49-21.31Q160.44-21.85 158.8-21.85 157.17-21.85 155.88-21.04 154.6-20.24 153.77-19.09L153.77-19.09Q152.18-16.92 152.06-14.6Z" opacity="1" transform="matrix(1,0,0,1,0,0)" fill="#374151" class="undefined-text-0" data-fill-palette-color="primary" id="text-0"></path></svg></g></svg></g></svg></g></svg></g><g transform="matrix(1,0,0,1,63.256966465156665,0)"><svg viewBox="0 0 65.48606706968667 65.5679296497142" height="65.5679296497142" width="65.48606706968667"><g><svg xmlns="http://www.w3.org/2000/svg" xmlns:xlink="http://www.w3.org/1999/xlink" version="1.1" x="0" y="0" viewBox="4.399993896484375 4.899993896484375 80 80.10000610351562" enable-background="new 0 0 90 90" xml:space="preserve" height="65.5679296497142" width="65.48606706968667" class="icon-icon-0" data-fill-palette-color="accent" id="icon-0"><path d="M81.6 59.6c0-0.1 0-0.1 0.1-0.2 1.6-4.2 2.6-8.8 2.7-13.6 0 0 0 0 0 0l0 0c0-0.3 0-0.6 0-0.9 0-22.1-17.9-40-40-40s-40 17.9-40 40c0 4.6 0.8 9 2.2 13.1l0 0c0 0 0 0 0 0C12 73.7 26.9 85 44.4 85c16.1 0 30-9.6 36.4-23.3 0-0.1 0.1-0.1 0.1-0.2C81.1 60.9 81.4 60.3 81.6 59.6zM77.9 45.9v-1.1h-1.1v1.1h-2.5v-1.1h-1.1v1.1h-2.5v-1.1h-1.1v1.1h-2.9v2.9H48.4v-4.7H56 57V43v-2.6c0.7-0.2 1.3-0.7 1.6-1.4h17.9c0.3 1.2 1.3 2.2 2.5 2.4 0.1 1.2 0.2 2.3 0.2 3.5 0 0.3 0 0.6 0 0.9H77.9zM44.4 10.1c15.9 0 29.3 10.7 33.5 25.2-0.1 0.1-0.2 0.1-0.3 0.2l-6.9-6.7v-0.3h-0.3l0 0 0 0H48.8V22h-5.4v6.5h-2.5V22h-5.4v6.5h-2.5V22h-5.4v6.5h-5.1c-0.2-1-1.2-1.8-2.3-1.8-1.3 0-2.3 1.1-2.3 2.4 0 1.1 0.8 2 1.8 2.3v2.2 1.1h1.1 18.8c0.2 1 1.2 1.8 2.3 1.8 1.3 0 2.3-1.1 2.3-2.4s-1-2.4-2.3-2.4c-1.1 0-2 0.8-2.3 1.8H20.7v-2.2c0.9-0.2 1.5-0.9 1.7-1.7h31.4V32h13.3v-2.4H70l7 6.7c-0.3 0.5-0.5 1-0.5 1.6H58.8c-0.1-1.2-1.1-2.2-2.3-2.2-1.3 0-2.3 1.1-2.3 2.4 0 1.1 0.8 2 1.8 2.3V43H38.3c-0.3-3.6-3.3-6.5-7-6.5-3.7 0-6.7 2.9-7 6.5h-1.8v-1.4-0.4-0.7h-3.6v-1.8h-8.6v4h8.6v-1.1h2.5V43v1.1 1.8h-2.5v-1.1h-8.6v4h8.6V47h3.6v-1.1-1.8h1.8c0.3 3.6 3.3 6.5 7 6.5 3.7 0 6.7-2.9 7-6.5h9v4.7 1.1h1.1 18.3v4.3H44.1C44 52.4 42.5 51 40.7 51c-1.8 0-3.3 1.4-3.4 3.2H23.9c-0.2-1-1.2-1.8-2.3-1.8-1.3 0-2.3 1.1-2.3 2.4s1 2.4 2.3 2.4c1.1 0 2-0.8 2.3-1.8h13.5c0.4 1.5 1.7 2.5 3.3 2.5 1.6 0 2.9-1.1 3.3-2.5h7v2h2.5v-2h13.3v4.3h-54c-2.1-4.5-3.2-9.4-3.2-14.7C9.5 25.7 25.1 10.1 44.4 10.1zM44.4 79.9c-13.6 0-25.4-7.8-31.1-19.2h29.4v6.4H48v-6.4h2.2v6.4h5.4v-6.4h2.2v6.4h5.4v-6.4h3.6v2.9h2.9v1.1h1.1v-1.1h2.5v1C66.9 73.8 56.4 79.9 44.4 79.9z" fill="#374151" data-fill-palette-color="accent"></path></svg></g></svg></g><g></g></svg></g></svg></g></svg></g></svg></g><defs></defs></svg><rect width="320" height="360" fill="none" stroke="none" visibility="hidden"></rect></g></svg></g></svg>